<svg id="Calque_1" data-name="Calque 1" xmlns="http://www.w3.org/2000/svg" viewBox="0 0 229.02 219.06"><defs><style>.cls-1{fill:#576f7b;}.cls-2{fill:#213c3c;}.cls-3{fill:#a5bac5;}.cls-4{fill:#fff;}.cls-5{fill:#fa3c52;}</style></defs><title>elements</title><polygon class="cls-1" points="47.81 144.64 47.81 102.34 55.4 102.34 55.4 83.91 62.99 83.91 62.99 75.23 73.84 75.23 73.84 69.26 90.65 69.26 90.65 58.96 132.95 58.96 132.95 68.18 153.01 68.18 153.01 76.31 160.6 76.31 160.6 83.91 170.91 83.91 170.91 101.8 181.21 101.8 181.21 144.64 170.91 144.64 170.91 164.16 162.77 164.16 162.77 172.3 153.56 172.3 153.56 180.97 134.03 180.97 134.03 191.82 92.82 191.82 92.82 182.06 74.38 182.06 74.38 172.3 66.25 172.3 66.25 163.62 57.03 163.62 57.03 145.18 47.81 144.64"/><path class="cls-2" d="M104.75,46.72a33.32,33.32,0,0,1-6.22-1.08c-2-.63-5.1-2.66-5.1-9.9,0-6,9.43-8.59,13.8-8.49l6.89.15a18.56,18.56,0,0,1,6.64.94,10,10,0,0,1,5.82,10.9,10.47,10.47,0,0,1-9.47,8.09l0,11.93-6.82.07h-5.54V57.06l-.07-3.36S104.77,49,104.75,46.72Z"/><path class="cls-2" d="M70.16,63.57a18.26,18.26,0,0,1-3,2.08c-1.07.56-3.14,1-6.07-1.94-2.43-2.43.34-7.3,2.14-9L66.14,52a10.84,10.84,0,0,1,3.06-2.3A5.72,5.72,0,0,1,76,51.7a6,6,0,0,1-.55,7.11l4.81,4.84c-.89.92-2.73,2.79-2.73,2.79l-2.24,2.24-.92-.91L73,66.44S71.11,64.5,70.16,63.57Z"/><polygon class="cls-3" points="47.81 137.24 47.81 94.94 55.4 94.94 55.4 76.5 62.99 76.5 62.99 67.83 73.84 67.83 73.84 61.86 90.65 61.86 90.65 51.56 132.95 51.56 132.95 60.78 153.01 60.78 153.01 68.91 160.6 68.91 160.6 76.5 170.91 76.5 170.91 94.4 181.21 94.4 181.21 137.24 170.91 137.24 170.91 156.76 162.77 156.76 162.77 164.9 153.56 164.9 153.56 173.57 134.03 173.57 134.03 184.42 92.82 184.42 92.82 174.66 74.38 174.66 74.38 164.9 66.25 164.9 66.25 156.22 57.03 156.22 57.03 137.78 47.81 137.24"/><polygon class="cls-4" points="67.41 131.58 67.41 101.71 72.77 101.71 72.77 88.69 78.13 88.69 78.13 82.57 85.79 82.57 85.79 78.36 97.66 78.36 97.66 71.08 127.53 71.08 127.53 77.59 141.7 77.59 141.7 83.33 147.06 83.33 147.06 88.69 154.33 88.69 154.33 101.33 161.61 101.33 161.61 131.58 154.33 131.58 154.33 145.37 148.59 145.37 148.59 151.11 142.08 151.11 142.08 157.24 128.3 157.24 128.3 164.9 99.19 164.9 99.19 158 86.17 158 86.17 151.11 80.43 151.11 80.43 144.98 73.92 144.98 73.92 131.97 67.41 131.58"/><rect class="cls-2" x="71.4" y="110.6" width="9.49" height="9.49"/><rect class="cls-2" x="108.53" y="75.69" width="9.49" height="9.49"/><rect class="cls-2" x="148.46" y="110.6" width="9.49" height="9.49"/><rect class="cls-2" x="108.53" y="148.15" width="9.49" height="9.49"/><path class="cls-5" d="M106,118.56c.46,2.58,2,4.78,6,4.74a12.54,12.54,0,0,0,8.72-4c5.45-5.65,14.36-15.12,14.36-15.12s4.34-9.49-6.78-7c-2.62,1.31-11.84,7.24-17.29,10.79A10.73,10.73,0,0,0,106,118.56Z"/></svg>